<mxfile host="Electron" modified="2021-12-22T13:22:43.779Z" agent="5.0 (X11; Linux x86_64) AppleWebKit/537.36 (KHTML, like Gecko) draw.io/15.8.7 Chrome/91.0.4472.164 Electron/13.6.2 Safari/537.36" etag="2Dctmv4SHYGS7iBg1Itj" compressed="false" version="15.8.7" type="device">
  <diagram id="X6ItrPXTXWkIHDyPNmIY" name="Page-1">
    <mxGraphModel dx="650" dy="500" grid="1" gridSize="10" guides="0" tooltips="1" connect="1" arrows="1" fold="1" page="1" pageScale="1" pageWidth="827" pageHeight="1169" math="0" shadow="0">
      <root>
        <mxCell id="0" />
        <mxCell id="1" parent="0" />
        <mxCell id="04DxcB0j_QGcJVIM7-Pl-36" value="" style="endArrow=none;html=1;strokeWidth=1;" parent="1" edge="1">
          <mxGeometry width="50" height="50" relative="1" as="geometry">
            <mxPoint x="370" y="140" as="sourcePoint" />
            <mxPoint x="380" y="140" as="targetPoint" />
            <Array as="points">
              <mxPoint x="370" y="160" />
              <mxPoint x="380" y="160" />
            </Array>
          </mxGeometry>
        </mxCell>
        <mxCell id="NLHE95Utaj9lMS9p2SQd-16" value="&lt;br&gt;..." style="rounded=0;whiteSpace=wrap;html=1;fillColor=#f5f5f5;strokeColor=#666666;fontColor=#333333;" parent="1" vertex="1">
          <mxGeometry x="110" y="270" width="50" height="50" as="geometry" />
        </mxCell>
        <mxCell id="NLHE95Utaj9lMS9p2SQd-15" value="&lt;br&gt;..." style="rounded=0;whiteSpace=wrap;html=1;fillColor=#f5f5f5;strokeColor=#666666;fontColor=#333333;" parent="1" vertex="1">
          <mxGeometry x="110" y="220" width="50" height="50" as="geometry" />
        </mxCell>
        <mxCell id="NLHE95Utaj9lMS9p2SQd-14" value="&lt;br&gt;..." style="rounded=0;whiteSpace=wrap;html=1;fillColor=#f5f5f5;strokeColor=#666666;fontColor=#333333;" parent="1" vertex="1">
          <mxGeometry x="110" y="170" width="50" height="50" as="geometry" />
        </mxCell>
        <mxCell id="04DxcB0j_QGcJVIM7-Pl-23" value="13" style="text;html=1;align=left;verticalAlign=middle;resizable=0;points=[];autosize=1;" parent="1" vertex="1">
          <mxGeometry x="370" y="100" width="30" height="20" as="geometry" />
        </mxCell>
        <mxCell id="04DxcB0j_QGcJVIM7-Pl-42" value="&lt;span&gt;higher virt bits&lt;/span&gt;" style="rounded=0;whiteSpace=wrap;html=1;fillColor=#dae8fc;strokeColor=#6c8ebf;" parent="1" vertex="1">
          <mxGeometry x="200" y="120" width="180" height="20" as="geometry" />
        </mxCell>
        <mxCell id="04DxcB0j_QGcJVIM7-Pl-43" value="&lt;span&gt;page bits&lt;/span&gt;" style="rounded=0;whiteSpace=wrap;html=1;fillColor=#f8cecc;strokeColor=#b85450;" parent="1" vertex="1">
          <mxGeometry x="380" y="120" width="60" height="20" as="geometry" />
        </mxCell>
        <mxCell id="04DxcB0j_QGcJVIM7-Pl-44" value="higher phys bits" style="rounded=0;whiteSpace=wrap;html=1;fillColor=#d5e8d4;strokeColor=#82b366;" parent="1" vertex="1">
          <mxGeometry x="280" y="300" width="100" height="20" as="geometry" />
        </mxCell>
        <mxCell id="04DxcB0j_QGcJVIM7-Pl-45" value="&lt;br&gt;..." style="rounded=0;whiteSpace=wrap;html=1;fillColor=#f5f5f5;strokeColor=#666666;fontColor=#333333;" parent="1" vertex="1">
          <mxGeometry x="110" y="120" width="50" height="50" as="geometry" />
        </mxCell>
        <mxCell id="04DxcB0j_QGcJVIM7-Pl-52" value="" style="rounded=0;whiteSpace=wrap;html=1;fillColor=#d5e8d4;strokeColor=#82b366;" parent="1" vertex="1">
          <mxGeometry x="110" y="120" width="20" height="20" as="geometry" />
        </mxCell>
        <mxCell id="04DxcB0j_QGcJVIM7-Pl-53" value="" style="rounded=0;whiteSpace=wrap;html=1;fillColor=#f5f5f5;strokeColor=#666666;fontColor=#333333;" parent="1" vertex="1">
          <mxGeometry x="130" y="120" width="30" height="20" as="geometry" />
        </mxCell>
        <mxCell id="04DxcB0j_QGcJVIM7-Pl-61" value="line index (256 lines)" style="endArrow=classic;html=1;startArrow=oval;startFill=1;fillColor=#ffe6cc;strokeColor=#d79b00;" parent="1" target="04DxcB0j_QGcJVIM7-Pl-91" edge="1">
          <mxGeometry x="0.5625" width="50" height="50" relative="1" as="geometry">
            <mxPoint x="400" y="150" as="sourcePoint" />
            <mxPoint x="230" y="240" as="targetPoint" />
            <Array as="points">
              <mxPoint x="400" y="230" />
            </Array>
            <mxPoint as="offset" />
          </mxGeometry>
        </mxCell>
        <mxCell id="04DxcB0j_QGcJVIM7-Pl-63" value="" style="rounded=0;whiteSpace=wrap;html=1;fillColor=#f8cecc;strokeColor=#b85450;" parent="1" vertex="1">
          <mxGeometry x="380" y="300" width="60" height="20" as="geometry" />
        </mxCell>
        <mxCell id="04DxcB0j_QGcJVIM7-Pl-78" value="2" style="text;html=1;align=left;verticalAlign=middle;resizable=0;points=[];autosize=1;" parent="1" vertex="1">
          <mxGeometry x="370" y="120" width="20" height="20" as="geometry" />
        </mxCell>
        <mxCell id="04DxcB0j_QGcJVIM7-Pl-89" value="" style="rounded=0;whiteSpace=wrap;html=1;fillColor=#f5f5f5;strokeColor=#666666;fontColor=#333333;" parent="1" vertex="1">
          <mxGeometry x="130" y="170" width="30" height="20" as="geometry" />
        </mxCell>
        <mxCell id="04DxcB0j_QGcJVIM7-Pl-91" value="data" style="rounded=0;whiteSpace=wrap;html=1;fillColor=#f5f5f5;strokeColor=#666666;fontColor=#333333;" parent="1" vertex="1">
          <mxGeometry x="130" y="220" width="30" height="20" as="geometry" />
        </mxCell>
        <mxCell id="04DxcB0j_QGcJVIM7-Pl-93" value="" style="rounded=0;whiteSpace=wrap;html=1;fillColor=#f5f5f5;strokeColor=#666666;fontColor=#333333;" parent="1" vertex="1">
          <mxGeometry x="130" y="270" width="30" height="20" as="geometry" />
        </mxCell>
        <mxCell id="04DxcB0j_QGcJVIM7-Pl-98" value="TLB" style="rounded=0;whiteSpace=wrap;html=1;fillColor=#f5f5f5;strokeColor=#666666;fontColor=#333333;" parent="1" vertex="1">
          <mxGeometry x="260" y="170" width="60" height="20" as="geometry" />
        </mxCell>
        <mxCell id="04DxcB0j_QGcJVIM7-Pl-99" value="" style="endArrow=classic;html=1;startArrow=oval;startFill=1;fillColor=#dae8fc;strokeColor=#6c8ebf;" parent="1" target="04DxcB0j_QGcJVIM7-Pl-98" edge="1">
          <mxGeometry width="50" height="50" relative="1" as="geometry">
            <mxPoint x="290" y="150" as="sourcePoint" />
            <mxPoint x="300" y="-20" as="targetPoint" />
          </mxGeometry>
        </mxCell>
        <mxCell id="04DxcB0j_QGcJVIM7-Pl-103" value="" style="endArrow=classic;html=1;fillColor=#d5e8d4;strokeColor=#82b366;startArrow=oval;startFill=1;" parent="1" source="04DxcB0j_QGcJVIM7-Pl-98" target="04DxcB0j_QGcJVIM7-Pl-44" edge="1">
          <mxGeometry width="50" height="50" relative="1" as="geometry">
            <mxPoint x="290" y="240" as="sourcePoint" />
            <mxPoint x="330" y="310.00000000000006" as="targetPoint" />
            <Array as="points">
              <mxPoint x="290" y="250" />
              <mxPoint x="330" y="250" />
            </Array>
          </mxGeometry>
        </mxCell>
        <mxCell id="04DxcB0j_QGcJVIM7-Pl-104" value="" style="endArrow=classic;html=1;strokeWidth=1;fillColor=#d5e8d4;strokeColor=#82b366;startArrow=oval;startFill=1;" parent="1" source="04DxcB0j_QGcJVIM7-Pl-44" target="04DxcB0j_QGcJVIM7-Pl-92" edge="1">
          <mxGeometry width="50" height="50" relative="1" as="geometry">
            <mxPoint x="170" y="360" as="sourcePoint" />
            <mxPoint x="220" y="310" as="targetPoint" />
            <Array as="points">
              <mxPoint x="120" y="310" />
            </Array>
          </mxGeometry>
        </mxCell>
        <mxCell id="04DxcB0j_QGcJVIM7-Pl-105" value="" style="endArrow=classic;html=1;strokeWidth=1;fillColor=#d5e8d4;strokeColor=#82b366;startArrow=oval;startFill=1;" parent="1" source="04DxcB0j_QGcJVIM7-Pl-44" target="04DxcB0j_QGcJVIM7-Pl-90" edge="1">
          <mxGeometry width="50" height="50" relative="1" as="geometry">
            <mxPoint x="280" y="270" as="sourcePoint" />
            <mxPoint x="80" y="250" as="targetPoint" />
            <Array as="points">
              <mxPoint x="120" y="310" />
            </Array>
          </mxGeometry>
        </mxCell>
        <mxCell id="04DxcB0j_QGcJVIM7-Pl-106" value="" style="endArrow=classic;html=1;strokeWidth=1;fillColor=#d5e8d4;strokeColor=#82b366;startArrow=oval;startFill=1;" parent="1" source="04DxcB0j_QGcJVIM7-Pl-44" target="04DxcB0j_QGcJVIM7-Pl-88" edge="1">
          <mxGeometry width="50" height="50" relative="1" as="geometry">
            <mxPoint x="280" y="270" as="sourcePoint" />
            <mxPoint x="80" y="210" as="targetPoint" />
            <Array as="points">
              <mxPoint x="120" y="310" />
            </Array>
          </mxGeometry>
        </mxCell>
        <mxCell id="04DxcB0j_QGcJVIM7-Pl-107" value="" style="endArrow=classic;html=1;strokeWidth=1;fillColor=#d5e8d4;strokeColor=#82b366;startArrow=oval;startFill=1;" parent="1" source="04DxcB0j_QGcJVIM7-Pl-44" target="04DxcB0j_QGcJVIM7-Pl-52" edge="1">
          <mxGeometry width="50" height="50" relative="1" as="geometry">
            <mxPoint x="280" y="270" as="sourcePoint" />
            <mxPoint x="80" y="170" as="targetPoint" />
            <Array as="points">
              <mxPoint x="120" y="310" />
            </Array>
          </mxGeometry>
        </mxCell>
        <mxCell id="04DxcB0j_QGcJVIM7-Pl-111" value="&lt;b&gt;&lt;font style=&quot;font-size: 12px&quot;&gt;Page Color&lt;/font&gt;&lt;/b&gt;" style="text;html=1;align=center;verticalAlign=middle;resizable=0;points=[];autosize=1;" parent="1" vertex="1">
          <mxGeometry x="240" y="330" width="80" height="20" as="geometry" />
        </mxCell>
        <mxCell id="04DxcB0j_QGcJVIM7-Pl-88" value="" style="rounded=0;whiteSpace=wrap;html=1;fillColor=#d5e8d4;strokeColor=#82b366;" parent="1" vertex="1">
          <mxGeometry x="110" y="170" width="20" height="20" as="geometry" />
        </mxCell>
        <mxCell id="04DxcB0j_QGcJVIM7-Pl-90" value="tag" style="rounded=0;whiteSpace=wrap;html=1;fillColor=#d5e8d4;strokeColor=#82b366;" parent="1" vertex="1">
          <mxGeometry x="110" y="220" width="20" height="20" as="geometry" />
        </mxCell>
        <mxCell id="04DxcB0j_QGcJVIM7-Pl-92" value="" style="rounded=0;whiteSpace=wrap;html=1;fillColor=#d5e8d4;strokeColor=#82b366;" parent="1" vertex="1">
          <mxGeometry x="110" y="270" width="20" height="20" as="geometry" />
        </mxCell>
        <mxCell id="NLHE95Utaj9lMS9p2SQd-30" value="way" style="endArrow=none;html=1;fillColor=#f5f5f5;strokeColor=#666666;" parent="1" edge="1">
          <mxGeometry width="50" height="50" relative="1" as="geometry">
            <mxPoint x="160" y="110" as="sourcePoint" />
            <mxPoint x="110" y="110" as="targetPoint" />
            <Array as="points">
              <mxPoint x="160" y="100" />
              <mxPoint x="110" y="100" />
            </Array>
          </mxGeometry>
        </mxCell>
        <mxCell id="NLHE95Utaj9lMS9p2SQd-31" value="line" style="endArrow=none;html=1;fillColor=#f5f5f5;strokeColor=#666666;" parent="1" edge="1">
          <mxGeometry width="50" height="50" relative="1" as="geometry">
            <mxPoint x="100" y="140" as="sourcePoint" />
            <mxPoint x="100" y="120" as="targetPoint" />
            <Array as="points">
              <mxPoint x="90" y="140" />
              <mxPoint x="90" y="120" />
            </Array>
          </mxGeometry>
        </mxCell>
        <mxCell id="tztnqS50Riws-06kiz5j-1" value="1*16KB&lt;br&gt;cache" style="text;html=1;align=center;verticalAlign=middle;resizable=0;points=[];autosize=1;" parent="1" vertex="1">
          <mxGeometry x="40" y="210" width="60" height="30" as="geometry" />
        </mxCell>
        <mxCell id="tztnqS50Riws-06kiz5j-2" value="0" style="text;html=1;align=left;verticalAlign=middle;resizable=0;points=[];autosize=1;" parent="1" vertex="1">
          <mxGeometry x="440" y="100" width="20" height="20" as="geometry" />
        </mxCell>
        <mxCell id="tztnqS50Riws-06kiz5j-3" value="47" style="text;html=1;align=left;verticalAlign=middle;resizable=0;points=[];autosize=1;" parent="1" vertex="1">
          <mxGeometry x="200" y="100" width="30" height="20" as="geometry" />
        </mxCell>
        <mxCell id="tztnqS50Riws-06kiz5j-4" value="" style="endArrow=none;html=1;fillColor=#ffe6cc;strokeColor=#d79b00;" parent="1" edge="1">
          <mxGeometry width="50" height="50" relative="1" as="geometry">
            <mxPoint x="370" y="120" as="sourcePoint" />
            <mxPoint x="420" y="140" as="targetPoint" />
            <Array as="points">
              <mxPoint x="370" y="150" />
              <mxPoint x="420" y="150" />
            </Array>
          </mxGeometry>
        </mxCell>
        <mxCell id="tztnqS50Riws-06kiz5j-5" value="" style="endArrow=none;html=1;fillColor=#e1d5e7;strokeColor=#9673a6;" parent="1" edge="1">
          <mxGeometry width="50" height="50" relative="1" as="geometry">
            <mxPoint x="420.0000000000002" y="140" as="sourcePoint" />
            <mxPoint x="440.0000000000002" y="140" as="targetPoint" />
            <Array as="points">
              <mxPoint x="420" y="150" />
              <mxPoint x="440" y="150" />
            </Array>
          </mxGeometry>
        </mxCell>
        <mxCell id="tztnqS50Riws-06kiz5j-6" value="inner-line index (64B)" style="endArrow=classic;html=1;startArrow=oval;startFill=1;fillColor=#e1d5e7;strokeColor=#9673a6;" parent="1" target="04DxcB0j_QGcJVIM7-Pl-91" edge="1">
          <mxGeometry x="0.4815" width="50" height="50" relative="1" as="geometry">
            <mxPoint x="430.0000000000002" y="150" as="sourcePoint" />
            <mxPoint x="175" y="220" as="targetPoint" />
            <Array as="points">
              <mxPoint x="430" y="260" />
              <mxPoint x="145" y="260" />
            </Array>
            <mxPoint as="offset" />
          </mxGeometry>
        </mxCell>
        <mxCell id="tztnqS50Riws-06kiz5j-7" value="" style="endArrow=none;html=1;fillColor=#dae8fc;strokeColor=#6c8ebf;" parent="1" edge="1">
          <mxGeometry width="50" height="50" relative="1" as="geometry">
            <mxPoint x="200" y="140" as="sourcePoint" />
            <mxPoint x="380" y="140" as="targetPoint" />
            <Array as="points">
              <mxPoint x="200" y="150" />
              <mxPoint x="380" y="150" />
            </Array>
          </mxGeometry>
        </mxCell>
        <mxCell id="tztnqS50Riws-06kiz5j-10" value="" style="endArrow=none;html=1;strokeWidth=1;" parent="1" edge="1">
          <mxGeometry width="50" height="50" relative="1" as="geometry">
            <mxPoint x="370" y="300" as="sourcePoint" />
            <mxPoint x="380" y="300" as="targetPoint" />
            <Array as="points">
              <mxPoint x="370" y="290" />
              <mxPoint x="380" y="290" />
            </Array>
          </mxGeometry>
        </mxCell>
        <mxCell id="tztnqS50Riws-06kiz5j-12" value="PC=1" style="text;html=1;align=left;verticalAlign=middle;resizable=0;points=[];autosize=1;strokeColor=none;" parent="1" vertex="1">
          <mxGeometry x="160" y="170" width="50" height="20" as="geometry" />
        </mxCell>
        <mxCell id="tztnqS50Riws-06kiz5j-13" value="PC=0" style="text;html=1;align=left;verticalAlign=middle;resizable=0;points=[];autosize=1;strokeColor=none;" parent="1" vertex="1">
          <mxGeometry x="160" y="120" width="50" height="20" as="geometry" />
        </mxCell>
        <mxCell id="tztnqS50Riws-06kiz5j-14" value="PC=3" style="text;html=1;align=left;verticalAlign=middle;resizable=0;points=[];autosize=1;strokeColor=none;" parent="1" vertex="1">
          <mxGeometry x="160" y="270" width="50" height="20" as="geometry" />
        </mxCell>
        <mxCell id="SWeq2ExEoJhXWNECmQFs-1" value="page&lt;br&gt;color&lt;br&gt;(PC)" style="endArrow=classic;startArrow=classic;html=1;rounded=0;fontSize=12;" edge="1" parent="1">
          <mxGeometry x="0.3846" width="50" height="50" relative="1" as="geometry">
            <mxPoint x="375" y="290" as="sourcePoint" />
            <mxPoint x="375" y="160" as="targetPoint" />
            <mxPoint as="offset" />
          </mxGeometry>
        </mxCell>
      </root>
    </mxGraphModel>
  </diagram>
</mxfile>
